<svg width="583" height="250" viewBox="0 0 583 250" fill="none" xmlns="http://www.w3.org/2000/svg">
<g clip-path="url(#clip0)">
<path d="M173.444 205.842C171.44 221.144 164.07 235.144 156.207 248.629C155.947 249.089 155.68 249.541 155.406 250H73.6871C72.0343 249.582 70.4029 249.123 68.7783 248.629C59.5485 245.891 50.8348 241.714 42.9759 236.261C12.9116 215.155 1.34293 175.273 6.56826 139.537C9.81739 117.335 19.8175 94.6669 39.2907 82.7093C49.5724 76.3844 62.7794 74.3286 74.6153 76.6791C74.925 76.7339 75.2344 76.8024 75.5506 76.8641C85.7338 79.098 94.8057 84.6485 99.9679 93.5911C109.251 109.66 103.723 129.567 99.1592 147.452C94.609 165.337 92.1404 186.744 105.348 199.935C100.987 187.43 105.291 172.512 115.707 164.056C123.576 157.676 134.533 155.284 144.526 157.265C145.482 157.463 146.425 157.69 147.353 157.964C149.597 158.604 151.76 159.486 153.802 160.595C169.379 169.072 175.687 188.594 173.444 205.842Z" fill="#3DECB1"/>
<path d="M124.99 248.629C127.254 249.143 129.526 249.596 131.811 250H119.455C117.837 249.575 116.227 249.123 114.631 248.629C111.121 247.561 107.666 246.334 104.265 244.95C90.6216 239.372 78.0543 230.998 68.5463 219.856C63.8962 214.457 60.099 208.413 57.2801 201.923C54.2234 194.587 52.2808 186.856 51.5136 178.974C49.7905 162.802 51.5486 146.184 54.8328 130.3C58.222 113.837 63.6929 97.8469 71.1203 82.6956C72.0135 80.8797 72.9371 79.0753 73.8911 77.2821C73.9567 77.1345 74.0561 77.0035 74.1816 76.899C74.3071 76.7945 74.4555 76.7193 74.6153 76.6791C74.94 76.6178 75.2763 76.6843 75.5507 76.8641C75.8801 77.0482 76.1243 77.3486 76.2329 77.7031C76.3415 78.0576 76.3063 78.4392 76.1345 78.7691C68.4764 93.321 62.6714 108.73 58.8484 124.654C55.1072 140.188 52.9833 156.443 53.7075 172.416C54.3967 187.341 58.3985 202.019 67.4773 214.223C75.7687 225.365 87.2176 234.15 99.8835 240.132C107.9 243.87 116.322 246.72 124.99 248.629Z" fill="#FCFCFC"/>
<path d="M152.107 250H148.464C148.056 249.548 147.663 249.089 147.276 248.629C138.978 238.806 133.357 227.102 130.932 214.6C127.987 198.998 130.278 182.887 137.465 168.654C139.47 164.662 141.833 160.851 144.526 157.265C145.482 157.463 146.425 157.69 147.353 157.964C140.27 167.108 135.506 177.754 133.45 189.033C131.615 199.602 132.225 210.437 135.235 220.748C138.245 231.058 143.579 240.584 150.849 248.629C151.256 249.089 151.678 249.548 152.107 250Z" fill="#FCFCFC"/>
<path d="M480.275 238.346C480.804 242.384 482.749 246.079 484.824 249.638C484.893 249.759 484.963 249.879 485.036 250H506.603C507.039 249.89 507.469 249.769 507.898 249.638C510.334 248.916 512.634 247.813 514.708 246.374C522.642 240.804 525.695 230.278 524.316 220.847C523.459 214.987 520.82 209.005 515.68 205.849C512.89 204.193 509.56 203.624 506.358 204.257C506.276 204.272 506.194 204.29 506.111 204.306C504.778 204.557 503.514 205.081 502.404 205.841C501.293 206.602 500.36 207.584 499.667 208.721C497.217 212.962 498.675 218.216 499.88 222.936C501.081 227.656 501.732 233.306 498.247 236.787C498.758 235.331 498.861 233.769 498.547 232.261C498.233 230.753 497.513 229.354 496.46 228.207C495.407 227.06 494.06 226.207 492.557 225.736C491.053 225.265 489.448 225.192 487.907 225.525C487.654 225.578 487.406 225.638 487.161 225.71C486.569 225.879 485.998 226.112 485.459 226.404C481.348 228.642 479.683 233.794 480.275 238.346Z" fill="#3DECB1"/>
<path d="M493.063 249.638C492.465 249.774 491.866 249.893 491.263 250H494.524C494.95 249.888 495.376 249.769 495.797 249.638C496.723 249.356 497.635 249.032 498.533 248.667C502.174 247.227 505.406 244.955 507.959 242.044C509.187 240.62 510.189 239.025 510.933 237.312C511.739 235.375 512.252 233.335 512.455 231.255C512.825 226.954 512.529 222.624 511.578 218.409C510.684 214.064 509.24 209.844 507.28 205.845C507.044 205.366 506.8 204.89 506.549 204.417C506.531 204.378 506.505 204.343 506.472 204.315C506.439 204.288 506.4 204.268 506.358 204.257C506.272 204.241 506.183 204.259 506.111 204.306C506.024 204.355 505.959 204.434 505.931 204.528C505.902 204.621 505.911 204.722 505.957 204.809C507.978 208.65 509.51 212.716 510.519 216.919C511.558 221.041 512.014 225.282 511.876 229.524C511.801 233.47 510.537 237.307 508.241 240.558C506.009 243.485 503.072 245.834 499.689 247.396C497.573 248.382 495.351 249.134 493.063 249.638Z" fill="#FCFCFC"/>
<path d="M485.906 250H486.867C486.975 249.881 487.079 249.759 487.181 249.638C489.371 247.046 490.855 243.957 491.495 240.657C492.272 236.54 491.667 232.288 489.77 228.531C489.241 227.478 488.617 226.472 487.907 225.525C487.654 225.578 487.406 225.638 487.161 225.71C489.03 228.123 490.287 230.933 490.83 233.91C491.314 236.699 491.153 239.559 490.359 242.28C489.564 245.001 488.157 247.515 486.238 249.638C486.131 249.759 486.019 249.881 485.906 250Z" fill="#FCFCFC"/>
<path d="M285.881 145.622H218.382L217.666 125.399C217.635 124.523 217.799 123.65 218.148 122.841C218.496 122.033 219.02 121.307 219.684 120.714C220.348 120.122 221.135 119.676 221.992 119.409C222.85 119.141 223.756 119.058 224.65 119.165L263.93 123.851H263.935C269.758 123.867 275.338 126.13 279.451 130.147C283.565 134.163 285.877 139.605 285.881 145.279V145.622Z" fill="#6C63FF"/>
<path d="M255.796 73.8901H208.719C208.093 73.89 207.473 74.01 206.894 74.2434C206.316 74.4768 205.79 74.819 205.347 75.2504C204.905 75.6817 204.553 76.1939 204.314 76.7576C204.074 77.3212 203.951 77.9254 203.951 78.5354V124.408C203.951 125.018 204.074 125.622 204.314 126.186C204.553 126.749 204.905 127.261 205.347 127.693C205.79 128.124 206.316 128.466 206.894 128.7C207.473 128.933 208.093 129.053 208.719 129.053H255.796C256.422 129.053 257.042 128.933 257.621 128.7C258.199 128.466 258.725 128.124 259.168 127.693C259.61 127.261 259.962 126.749 260.201 126.186C260.441 125.622 260.564 125.018 260.564 124.408V78.5354C260.564 77.9254 260.441 77.3212 260.201 76.7576C259.962 76.1939 259.61 75.6817 259.168 75.2503C258.725 74.8189 258.199 74.4768 257.621 74.2434C257.042 74.01 256.422 73.89 255.796 73.8901Z" fill="#CCCCCC"/>
<path d="M245.194 108.192L222.966 112.409C221.648 112.658 220.282 112.387 219.168 111.656C218.055 110.924 217.284 109.792 217.026 108.508L215.318 99.9588C215.062 98.6741 215.341 97.3432 216.091 96.2581C216.842 95.173 218.003 94.4223 219.321 94.1708L241.549 89.9531C242.867 89.7044 244.233 89.9755 245.347 90.7069C246.46 91.4382 247.231 92.5702 247.489 93.8543L249.197 102.404C249.453 103.688 249.174 105.019 248.424 106.104C247.673 107.189 246.512 107.94 245.194 108.192Z" fill="#3F3D56"/>
<path d="M240.747 98.0914L223.784 101.31C223.473 101.369 223.152 101.305 222.89 101.133C222.628 100.961 222.446 100.695 222.386 100.392C222.326 100.09 222.391 99.7766 222.568 99.5212C222.744 99.2658 223.018 99.0892 223.328 99.0303L240.291 95.8116C240.601 95.7527 240.923 95.8163 241.185 95.9885C241.447 96.1606 241.628 96.4272 241.689 96.7295C241.749 97.0318 241.684 97.3452 241.507 97.6006C241.331 97.856 241.057 98.0325 240.747 98.0914Z" fill="#FCFCFC"/>
<path d="M237.449 102.858L228.676 104.523C228.365 104.582 228.044 104.518 227.782 104.346C227.519 104.174 227.338 103.907 227.278 103.605C227.217 103.303 227.283 102.989 227.459 102.734C227.636 102.478 227.91 102.302 228.22 102.243L236.994 100.578C237.147 100.549 237.306 100.55 237.459 100.58C237.612 100.61 237.758 100.67 237.888 100.755C238.018 100.84 238.129 100.95 238.215 101.077C238.302 101.204 238.362 101.346 238.392 101.496C238.421 101.646 238.421 101.8 238.39 101.949C238.359 102.099 238.297 102.241 238.21 102.367C238.123 102.494 238.01 102.602 237.88 102.686C237.749 102.77 237.603 102.829 237.449 102.858Z" fill="#FCFCFC"/>
<path d="M260.564 78.5354V84.6324H203.951V78.5354C203.951 77.9254 204.074 77.3212 204.314 76.7576C204.553 76.1939 204.905 75.6817 205.347 75.2504C205.79 74.819 206.316 74.4768 206.894 74.2434C207.473 74.01 208.093 73.89 208.719 73.8901H255.796C256.422 73.89 257.042 74.01 257.621 74.2434C258.199 74.4768 258.725 74.819 259.168 75.2504C259.61 75.6817 259.962 76.1939 260.201 76.7576C260.441 77.3212 260.564 77.9254 260.564 78.5354Z" fill="#B3B3B3"/>
<path d="M373.613 86.5416C373.286 85.5136 372.732 84.5679 371.989 83.7712C371.247 82.9745 370.334 82.346 369.315 81.9302C368.297 81.5144 367.197 81.3213 366.093 81.3644C364.989 81.4076 363.909 81.686 362.928 82.1801L298.16 59.5375L295.308 75.3033L359.869 92.6027C360.83 94.1539 362.342 95.3076 364.117 95.8453C365.893 96.3831 367.81 96.2674 369.504 95.5203C371.198 94.7732 372.552 93.4465 373.309 91.7917C374.066 90.1369 374.174 88.2688 373.613 86.5416Z" fill="#FFB8B8"/>
<path opacity="0.2" d="M373.613 86.5416C373.286 85.5136 372.732 84.5679 371.989 83.7712C371.247 82.9745 370.334 82.346 369.315 81.9302C368.297 81.5144 367.197 81.3213 366.093 81.3644C364.989 81.4076 363.909 81.686 362.928 82.1801L298.16 59.5375L295.308 75.3033L359.869 92.6027C360.83 94.1539 362.342 95.3076 364.117 95.8453C365.893 96.3831 367.81 96.2674 369.504 95.5203C371.198 94.7732 372.552 93.4465 373.309 91.7917C374.066 90.1369 374.174 88.2688 373.613 86.5416Z" fill="black"/>
<path d="M309.656 62.4103L303.54 77.9794C303.366 78.4224 303.096 78.8236 302.749 79.1558C302.401 79.4879 301.984 79.7432 301.526 79.9042C301.068 80.0652 300.58 80.1282 300.095 80.0888C299.61 80.0494 299.139 79.9086 298.715 79.676L283.851 71.524C281.53 70.6435 279.663 68.9022 278.657 66.682C277.652 64.4617 277.591 61.9437 278.488 59.6799C279.386 57.4161 281.167 55.5913 283.443 54.6055C285.719 53.6197 288.303 53.5534 290.629 54.4211L307.227 58.0082C307.702 58.111 308.149 58.3124 308.537 58.5988C308.925 58.8851 309.245 59.2495 309.476 59.6673C309.707 60.085 309.842 60.5463 309.873 61.0197C309.904 61.493 309.83 61.9673 309.656 62.4103Z" fill="#6C63FF"/>
<path d="M378.711 100.958L355.503 111.236L358.55 122.413C364.434 143.997 365.996 166.484 363.149 188.643L380.117 192.096L394.182 157.148L389.26 117.404L378.711 100.958Z" fill="#6C63FF"/>
<path d="M424.247 152.694C408.999 152.694 396.572 163.495 395.969 177.021H452.524C451.921 163.495 439.495 152.694 424.247 152.694Z" fill="#3F3D56"/>
<path d="M412.377 155.025C411.583 93.9702 375.898 99.5871 375.898 99.5871C375.898 99.5871 376.565 118.591 376.886 119.182C399.626 161.106 362.096 210.255 314.324 201.213C313.424 201.043 312.558 200.87 311.728 200.694C305.675 199.463 300.331 196.031 296.782 191.097C293.234 186.162 291.747 180.096 292.626 174.132C297.331 137.31 273.925 137.961 273.925 137.961H239.7L221.927 122.375C221.299 121.824 220.543 121.432 219.724 121.233C218.906 121.033 218.049 121.032 217.23 121.229C216.41 121.427 215.653 121.817 215.024 122.366C214.395 122.914 213.914 123.604 213.622 124.376L211.336 130.423C211.336 130.423 177.579 133.85 180.392 166.057H190.829C190.803 166.972 190.841 167.887 190.941 168.798L268.828 168.181C273.393 168.144 277.423 171.749 277.442 176.198C277.446 177.281 277.227 178.354 276.796 179.352C276.366 180.351 275.733 181.254 274.935 182.009C274.138 182.763 273.193 183.354 272.156 183.744C271.119 184.134 270.012 184.317 268.901 184.281L256.344 183.873C252.476 200.662 261.97 211.968 272.431 219.078C282.28 225.675 293.967 229.172 305.919 229.1H340.032C384.337 229.1 392.073 192.781 392.073 192.781C415.28 183.188 412.377 155.025 412.377 155.025Z" fill="#3F3D56"/>
<path d="M422.137 248.972C443.984 248.972 461.695 231.715 461.695 210.427C461.695 189.139 443.984 171.881 422.137 171.881C400.289 171.881 382.579 189.139 382.579 210.427C382.579 231.715 400.289 248.972 422.137 248.972Z" fill="#3F3D56"/>
<path d="M422.137 219.874C427.492 219.874 431.832 215.644 431.832 210.427C431.832 205.209 427.492 200.979 422.137 200.979C416.782 200.979 412.441 205.209 412.441 210.427C412.441 215.644 416.782 219.874 422.137 219.874Z" fill="#FCFCFC"/>
<path d="M222.412 248.972C247.561 248.972 267.948 229.107 267.948 204.602C267.948 180.097 247.561 160.232 222.412 160.232C197.263 160.232 176.876 180.097 176.876 204.602C176.876 229.107 197.263 248.972 222.412 248.972Z" fill="#3F3D56"/>
<path d="M222.412 215.477C228.576 215.477 233.573 210.608 233.573 204.602C233.573 198.596 228.576 193.727 222.412 193.727C216.248 193.727 211.251 198.596 211.251 204.602C211.251 210.608 216.248 215.477 222.412 215.477Z" fill="#FCFCFC"/>
<path d="M355.569 114.274L347.219 92.1744C346.784 91.0227 346.586 89.7987 346.636 88.5724C346.686 87.346 346.984 86.1413 347.512 85.0271C348.04 83.9128 348.788 82.9109 349.714 82.0784C350.639 81.2459 351.724 80.5992 352.906 80.1752L376.845 71.5881C378.925 70.8419 381.135 70.5021 383.35 70.5881C385.564 70.6742 387.74 71.1845 389.752 72.0898C391.764 72.9951 393.573 74.2777 395.077 75.8643C396.58 77.451 397.748 79.3107 398.514 81.3372C399.204 83.1561 399.557 85.0803 399.555 87.0197C399.546 89.4822 398.975 91.9118 397.881 94.1319C396.788 96.3521 395.201 98.3069 393.235 99.8545C391.815 100.964 390.218 101.841 388.509 102.451L355.569 114.274Z" fill="#3F3D56"/>
<path d="M399.204 87.0195C399.202 89.4318 398.645 91.813 397.574 93.988C396.503 96.1629 394.945 98.0761 393.015 99.587C390.054 98.8259 387.298 97.4457 384.94 95.5421C382.582 93.6385 380.677 91.2574 379.359 88.5641C378.04 85.8708 377.34 82.9301 377.306 79.9463C377.271 76.9626 377.904 74.0073 379.161 71.2861C381.573 70.7749 384.072 70.7967 386.474 71.3498C388.877 71.9029 391.122 72.9732 393.044 74.4822C394.966 75.9912 396.517 77.9005 397.583 80.07C398.649 82.2395 399.203 84.6141 399.204 87.0195Z" fill="#6C63FF"/>
<path d="M186.37 170.511C191.808 170.511 196.216 165.295 196.216 158.861C196.216 152.428 191.808 147.212 186.37 147.212C180.932 147.212 176.524 152.428 176.524 158.861C176.524 165.295 180.932 170.511 186.37 170.511Z" fill="#6C63FF"/>
<path d="M316.516 200.097H325.137L329.24 178.308L316.514 178.309L316.516 200.097Z" fill="#FFB8B8"/>
<path d="M314.316 197.354L331.295 197.354H331.296C332.717 197.354 334.124 197.626 335.437 198.156C336.75 198.686 337.943 199.463 338.948 200.442C339.952 201.421 340.749 202.583 341.293 203.862C341.837 205.142 342.117 206.513 342.117 207.897V208.24L314.317 208.241L314.316 197.354Z" fill="#2F2E41"/>
<path d="M326.523 191.154C326.423 191.154 326.322 191.15 326.221 191.14L314.289 190.294C313.806 190.25 313.34 190.099 312.927 189.852C312.514 189.606 312.165 189.27 311.906 188.87C311.647 188.471 311.486 188.019 311.434 187.55C311.383 187.08 311.443 186.605 311.61 186.162L327.578 151.204C327.692 150.893 327.739 150.561 327.715 150.231C327.692 149.901 327.598 149.579 327.44 149.286C327.283 148.99 327.063 148.729 326.795 148.521C326.527 148.313 326.217 148.163 325.885 148.08C318.376 146.168 299.111 141.075 282.434 135.117C275.289 132.564 270.789 128.875 269.059 124.151C266.778 117.925 270.152 112.246 270.297 112.008L270.41 111.821L286.103 113.211L303.115 114.621L340.397 134.101C343.521 135.747 345.894 138.479 347.044 141.754C348.193 145.028 348.034 148.604 346.599 151.77L329.411 189.327C329.162 189.871 328.757 190.333 328.245 190.657C327.732 190.981 327.134 191.154 326.523 191.154Z" fill="#2F2E41"/>
<path d="M288.831 44.0488C298.371 44.0488 306.104 36.5136 306.104 27.2183C306.104 17.9231 298.371 10.3878 288.831 10.3878C279.292 10.3878 271.559 17.9231 271.559 27.2183C271.559 36.5136 279.292 44.0488 288.831 44.0488Z" fill="#FFB8B8"/>
<path d="M311.593 202.153H320.215L324.317 180.364L311.591 180.365L311.593 202.153Z" fill="#FFB8B8"/>
<path d="M309.393 199.41L326.373 199.409H326.373C327.794 199.409 329.201 199.682 330.514 200.212C331.827 200.742 333.02 201.518 334.025 202.497C335.03 203.477 335.827 204.639 336.37 205.918C336.914 207.197 337.194 208.568 337.194 209.953V210.295L309.394 210.296L309.393 199.41Z" fill="#2F2E41"/>
<path d="M321.6 193.21C321.5 193.21 321.399 193.205 321.298 193.196L309.366 192.349C308.884 192.306 308.418 192.155 308.005 191.908C307.591 191.661 307.242 191.325 306.983 190.926C306.724 190.527 306.563 190.075 306.512 189.606C306.46 189.136 306.52 188.661 306.687 188.218L322.656 153.26C322.77 152.948 322.816 152.617 322.793 152.287C322.769 151.957 322.675 151.635 322.518 151.342C322.36 151.046 322.141 150.785 321.873 150.577C321.605 150.369 321.294 150.219 320.963 150.136C313.454 148.224 294.188 143.131 277.511 137.173C270.366 134.62 265.866 130.93 264.136 126.207C261.855 119.98 265.229 114.302 265.374 114.063L265.487 113.877L281.18 115.267L298.193 116.677L335.475 136.157C338.599 137.803 340.972 140.535 342.121 143.81C343.27 147.084 343.111 150.66 341.676 153.825L324.488 191.383C324.239 191.926 323.834 192.388 323.322 192.713C322.809 193.037 322.211 193.21 321.6 193.21Z" fill="#2F2E41"/>
<path d="M294.158 53.5924L275.874 47.4252C275.874 47.4252 264.395 56.0182 269.909 77.3354C272.788 88.3359 271.95 99.9477 267.518 110.447C266.985 111.746 266.37 113.012 265.677 114.237C265.677 114.237 286.071 138.221 305.059 120.405L297.675 85.7993C297.675 85.7993 309.278 62.8433 294.158 53.5924Z" fill="#6C63FF"/>
<path d="M290.976 44.6213C288.518 41.0358 286.577 36.0641 289.284 32.6527C291.956 29.2853 297.225 29.7814 301.317 28.2913C307.016 26.2159 310.322 19.6919 309.291 13.8492C308.26 8.00648 303.447 3.16306 297.712 1.18129C291.978 -0.800479 285.512 -0.155961 279.897 2.12617C272.984 4.9355 267.054 10.37 264.568 17.254C262.081 24.138 263.411 32.4036 268.569 37.6948C274.099 43.3675 282.779 44.8794 290.808 44.7876" fill="#2F2E41"/>
<path d="M274.909 14.0367C271.811 16.4939 267.085 15.4025 263.759 13.246C260.434 11.0895 257.736 8.01869 254.138 6.3279C247.795 3.34708 240.127 5.32864 233.954 8.63042C227.78 11.9322 222.308 16.4937 215.788 19.0847C209.267 21.6758 200.946 21.8039 196.009 16.9114C194.793 20.3416 194.694 24.0536 195.724 27.5409C196.754 31.0282 198.863 34.121 201.764 36.3972C204.664 38.6733 208.215 40.0222 211.931 40.2595C215.647 40.4969 219.348 39.6113 222.528 37.7235C229.673 33.4829 233.62 24.5915 241.633 22.251C246.067 20.9558 250.829 21.9989 255.311 23.1288C259.793 24.2587 264.466 25.4795 268.989 24.5176C273.511 23.5558 277.742 19.5954 277.167 15.1196L274.909 14.0367Z" fill="#2F2E41"/>
<path d="M372.753 85.8561C372.299 84.8753 371.629 84.0035 370.791 83.3021C369.954 82.6007 368.968 82.0868 367.905 81.7967C366.841 81.5065 365.725 81.447 364.636 81.6226C363.546 81.7981 362.509 82.2043 361.598 82.8125L294.458 68.1295L293.624 84.1178L359.882 93.5233C361.032 94.947 362.678 95.9102 364.509 96.2304C366.339 96.5505 368.226 96.2053 369.813 95.2603C371.399 94.3152 372.575 92.8359 373.117 91.1026C373.659 89.3694 373.529 87.5026 372.753 85.8561Z" fill="#FFB8B8"/>
<path d="M306.23 69.5982L302.132 85.7837C302.015 86.2442 301.798 86.6748 301.496 87.0462C301.193 87.4176 300.811 87.7211 300.377 87.9359C299.943 88.1507 299.467 88.2719 298.981 88.2911C298.494 88.3103 298.009 88.2272 297.559 88.0473L281.776 81.7447C279.36 81.1513 277.284 79.6482 276.004 77.5653C274.724 75.4823 274.344 72.9896 274.948 70.6341C275.552 68.2787 277.09 66.2528 279.225 65.0012C281.36 63.7495 283.917 63.3742 286.336 63.9576L303.262 65.5217C303.746 65.5667 304.215 65.7128 304.637 65.9503C305.058 66.1877 305.422 66.5109 305.704 66.8978C305.986 67.2846 306.178 67.7261 306.269 68.1921C306.36 68.6581 306.346 69.1377 306.23 69.5982V69.5982Z" fill="#6C63FF"/>
<path d="M364.997 98.5592C367.716 98.5592 369.92 96.4116 369.92 93.7625C369.92 91.1133 367.716 88.9657 364.997 88.9657C362.278 88.9657 360.074 91.1133 360.074 93.7625C360.074 96.4116 362.278 98.5592 364.997 98.5592Z" fill="#6C63FF"/>
<path d="M583 249.315C582.999 249.496 582.925 249.67 582.793 249.799C582.662 249.927 582.483 249.999 582.297 250H0.703257C0.516742 250 0.337865 249.928 0.205979 249.799C0.0740924 249.671 0 249.496 0 249.315C0 249.133 0.0740924 248.959 0.205979 248.83C0.337865 248.702 0.516742 248.629 0.703257 248.629H582.297C582.483 248.63 582.662 248.702 582.793 248.831C582.925 248.959 582.999 249.133 583 249.315Z" fill="#3F3D56"/>
</g>
<defs>
<clipPath id="clip0">
<rect width="583" height="250" fill="white"/>
</clipPath>
</defs>
</svg>
